<?xml version="1.0" encoding="UTF-8" standalone="no"?>
<!-- Created with Inkscape (http://www.inkscape.org/) -->

<svg
   width="180"
   height="180"
   viewBox="0 0 180 180"
   version="1.1"
   id="svg1"
   inkscape:version="1.4 (86a8ad7, 2024-10-11)"
   sodipodi:docname="skhand_icon_only.svg"
   xmlns:inkscape="http://www.inkscape.org/namespaces/inkscape"
   xmlns:sodipodi="http://sodipodi.sourceforge.net/DTD/sodipodi-0.dtd"
   xmlns="http://www.w3.org/2000/svg"
   xmlns:svg="http://www.w3.org/2000/svg">
  <sodipodi:namedview
     id="namedview1"
     pagecolor="#ffffff"
     bordercolor="#000000"
     borderopacity="0.25"
     inkscape:showpageshadow="2"
     inkscape:pageopacity="0.0"
     inkscape:pagecheckerboard="0"
     inkscape:deskcolor="#d1d1d1"
     inkscape:document-units="px"
     inkscape:zoom="3.1387684"
     inkscape:cx="38.70945"
     inkscape:cy="88.091877"
     inkscape:window-width="1920"
     inkscape:window-height="1051"
     inkscape:window-x="-9"
     inkscape:window-y="-9"
     inkscape:window-maximized="1"
     inkscape:current-layer="layer1" />
  <defs
     id="defs1">
    <inkscape:path-effect
       effect="bspline"
       id="path-effect2"
       is_visible="true"
       lpeversion="1.3"
       weight="33.333333"
       steps="2"
       helper_size="0"
       apply_no_weight="true"
       apply_with_weight="true"
       only_selected="false"
       uniform="false" />
    <inkscape:path-effect
       effect="bspline"
       id="path-effect1"
       is_visible="true"
       lpeversion="1.3"
       weight="33.333333"
       steps="2"
       helper_size="0"
       apply_no_weight="true"
       apply_with_weight="true"
       only_selected="false"
       uniform="false" />
    <inkscape:path-effect
       effect="bspline"
       id="path-effect10"
       is_visible="true"
       lpeversion="1.3"
       weight="33.333333"
       steps="2"
       helper_size="0"
       apply_no_weight="true"
       apply_with_weight="true"
       only_selected="false"
       uniform="false" />
    <inkscape:path-effect
       effect="bspline"
       id="path-effect9"
       is_visible="true"
       lpeversion="1.3"
       weight="33.333333"
       steps="2"
       helper_size="0"
       apply_no_weight="true"
       apply_with_weight="true"
       only_selected="false"
       uniform="false" />
    <inkscape:path-effect
       effect="bspline"
       id="path-effect7"
       is_visible="true"
       lpeversion="1.3"
       weight="33.333333"
       steps="2"
       helper_size="0"
       apply_no_weight="true"
       apply_with_weight="true"
       only_selected="false"
       uniform="false" />
    <inkscape:path-effect
       effect="bspline"
       id="path-effect3"
       is_visible="true"
       lpeversion="1.3"
       weight="33.333333"
       steps="2"
       helper_size="0"
       apply_no_weight="true"
       apply_with_weight="true"
       only_selected="false"
       uniform="false" />
  </defs>
  <g
     inkscape:label="图层 1"
     inkscape:groupmode="layer"
     id="layer1">
    <path
       style="opacity:1;fill:none;fill-opacity:0.94902;stroke:#0d3869;stroke-width:5;stroke-miterlimit:3;stroke-opacity:1;paint-order:normal;stroke-linecap:butt;stroke-linejoin:round;stroke-dasharray:20,5;stroke-dashoffset:0"
       d="m 110.16365,86.355608 c 5.1211,-5.846271 10.24219,-11.692536 15.44222,-14.452596 5.20002,-2.76006 10.47863,-2.43393 14.9053,-3.704568 4.42666,-1.270638 8.00083,-4.137887 9.57562,-7.446774 1.57479,-3.308886 1.15002,-7.059007 -1.20573,-9.824004 -2.35574,-2.764996 -6.64226,-4.544573 -10.82993,-4.47857 -4.18767,0.066 -8.27615,1.977502 -10.13467,1.180996 -1.85852,-0.796506 -1.48683,-4.300995 -3.6374,-7.009082 -2.15057,-2.708088 -6.82322,-4.619627 -11.23051,-4.778911 -4.40729,-0.159283 -8.54896,1.433666 -10.35434,3.982473 -1.80537,2.548806 -1.27439,6.053295 0.10622,9.87649 1.38061,3.823196 3.61074,7.964865 -5.469463,19.753125 -9.080198,11.78826 -29.469953,31.222243 -42.957263,40.389103 -13.48731,9.16686 -20.071369,8.06626 -25.503169,8.48729 -5.431799,0.42103 -9.710678,2.36363 -11.940899,5.94069 -2.230221,3.57706 -2.41151,8.78824 -1.546347,12.19039 0.865163,3.40215 2.776702,4.9951 5.723757,5.23403 2.947056,0.23894 6.929351,-0.8761 8.628564,0.61071 1.699214,1.48681 1.115132,5.57539 2.26968,8.65706 1.154549,3.08167 4.047571,5.15624 7.465326,5.45285 3.417756,0.2966 7.359838,-1.18478 10.108175,-4.39925 2.748337,-3.21446 4.302637,-8.16172 5.0267,-12.17531 0.724064,-4.01359 0.617868,-7.09329 2.203058,-9.91237 1.585191,-2.81908 4.861643,-5.37737 8.138154,-7.9357"
       id="path2"
       inkscape:path-effect="#path-effect2"
       inkscape:original-d="m 110.16365,86.355608 c 5.1211,-5.846269 10.24219,-11.692538 15.36329,-17.538807 5.27895,0.326151 10.55756,0.652281 15.8365,0.978431 3.57439,-2.867426 7.14856,-5.734675 10.72295,-8.6021 -0.4248,-3.750349 -0.84958,-7.50047 -1.27439,-11.250818 -4.28668,-1.779646 -8.5732,-3.55922 -12.8598,-5.338832 -4.08874,1.911616 -8.17722,3.823117 -12.26596,5.734734 0.3717,-3.50463 0.74339,-7.009119 1.11509,-10.513678 -4.67284,-1.911616 -9.34549,-3.823156 -14.01824,-5.734734 -4.14183,1.593014 -8.2835,3.185963 -12.42526,4.778945 0.53101,3.504629 1.06199,7.009118 1.59299,10.513678 2.23021,4.141834 4.46034,8.283503 6.69052,12.425255 -20.390573,19.434763 -40.780328,38.868748 -61.170491,58.303128 -6.584455,-1.10066 -13.168514,-2.20126 -19.752971,-3.30192 -4.279142,1.94272 -8.558021,3.88532 -12.837166,5.82804 -0.181297,5.2114 -0.362586,10.42258 -0.543878,15.63386 1.911616,1.59302 3.823155,3.18597 5.734733,4.77895 3.982535,-1.11511 7.96483,-2.23015 11.947361,-3.34526 -0.584104,4.08873 -1.168186,8.17731 -1.752279,12.26596 2.89319,2.07469 5.786211,4.14926 8.679404,6.22395 3.942318,-1.48148 7.884399,-2.96287 11.826715,-4.44434 1.55436,-4.94745 3.108659,-9.89471 4.662988,-14.84206 -0.106201,-3.07983 -0.212397,-6.15953 -0.318596,-9.2393 3.276578,-2.55839 6.553029,-5.11668 9.829543,-7.67501"
       transform="translate(2.2301741,-7.3277149)"
       sodipodi:nodetypes="cccccccccccccccccccccccc"
       inkscape:label="bone" />
    <path
       style="opacity:1;fill:#fedcbd;fill-opacity:1;stroke:#002fa7;stroke-width:5;stroke-miterlimit:3;stroke-opacity:1"
       d="m 99.083445,87.932579 c 0,0 6.486985,-1.935991 8.602105,0 6.21293,5.686759 2.23018,25.169111 2.23018,25.169111 0,0 4.31868,-9.4015 8.6021,-9.55789 3.67792,-0.13428 7.96491,7.64631 7.96491,7.64631 0,0 4.53248,-7.18146 7.9649,-6.69052 3.03238,0.43372 5.09754,7.64631 5.09754,7.64631 0,0 5.43591,-5.63605 8.6021,-4.77894 3.21722,0.87093 4.51421,5.32053 5.09754,8.6021 1.5311,8.61333 -0.49861,18.17659 -4.77894,25.8063 -2.72283,4.85346 -7.25893,9.08231 -12.42526,11.15087 -9.76486,3.90978 -31.54103,0.95579 -31.54103,0.95579 0,0 -5.494665,-8.10481 -9.239295,-11.15087 -4.754071,-3.86719 -16.248413,-8.6021 -16.248413,-8.6021 0,0 2.024722,-9.03995 5.734733,-10.51368 4.775344,-1.89692 14.65543,4.77894 14.65543,4.77894 z"
       id="path3"
       sodipodi:nodetypes="cscscscsssscscscc"
       inkscape:label="hand" />
    <path
       style="fill:none;stroke:#fedcbd;stroke-width:5;stroke-linecap:butt;stroke-linejoin:miter;stroke-miterlimit:3;stroke-opacity:1"
       d="M 69.386737,39.31164 H 41.902377 V 78.961204"
       id="path1"
       sodipodi:nodetypes="ccc" />
    <path
       style="fill:none;stroke:#002fa7;stroke-width:5;stroke-linecap:butt;stroke-linejoin:miter;stroke-miterlimit:3"
       d="M 73.554446,42.690864 H 46.070086 V 82.340428"
       id="path4"
       sodipodi:nodetypes="ccc" />
  </g>
</svg>
